<svg width="14" height="14" viewBox="0 0 14 14" fill="none" xmlns="http://www.w3.org/2000/svg">
<g clip-path="url(#clip0_2087_2359)">
<rect width="14" height="14" rx="7" fill="white"/>
<path fill-rule="evenodd" clip-rule="evenodd" d="M9.89981 3.83242C9.68689 3.61957 9.39815 3.5 9.09708 3.5C8.79601 3.5 8.50727 3.61957 8.29435 3.83242L8.02678 4.10037L9.90018 5.97373L10.1674 5.70616C10.2728 5.60073 10.3565 5.47556 10.4136 5.33779C10.4706 5.20003 10.5 5.05238 10.5 4.90326C10.5 4.75415 10.4706 4.60649 10.4136 4.46873C10.3565 4.33097 10.2728 4.2058 10.1674 4.10037L9.89981 3.83242ZM9.36465 6.50886L7.49124 4.6355L4.05098 8.07605C3.9757 8.15135 3.92311 8.24629 3.89922 8.35005L3.50978 10.0361C3.49527 10.0987 3.49693 10.1639 3.51461 10.2257C3.5323 10.2875 3.56542 10.3437 3.61085 10.3892C3.65628 10.4346 3.71254 10.4677 3.77431 10.4854C3.83608 10.5031 3.90134 10.5047 3.96394 10.4902L5.65038 10.1012C5.75401 10.0772 5.84882 10.0246 5.92402 9.94941L9.36465 6.50886Z" fill="#CACACA"/>
</g>
<rect x="0.25" y="0.25" width="13.5" height="13.5" rx="6.75" stroke="#CACACA" stroke-width="0.5"/>
<defs>
<clipPath id="clip0_2087_2359">
<rect width="14" height="14" rx="7" fill="white"/>
</clipPath>
</defs>
</svg>
