<svg width="24" height="24" viewBox="0 0 24 24" fill="none" xmlns="http://www.w3.org/2000/svg">
<path d="M16.3636 1.09088V2.18179H18.5454V3.2727H19.6363V4.36361H20.7272V5.45452H21.8182V7.63634H22.9091V16.3636H21.8182V18.5454H20.7272V19.6363H19.6363V20.7272H18.5454V21.8182H16.3636V22.9091H7.63634V21.8182H5.45452V20.7272H4.36361V19.6363H3.2727V18.5454H2.18179V16.3636H1.09088V7.63634H2.18179V5.45452H3.2727V4.36361H4.36361V3.2727H5.45452V2.18179H7.63634V1.09088H16.3636ZM15.2727 3.2727H8.72725V4.36361H6.54543V5.45452H5.45452V6.54543H4.36361V8.72725H3.2727V15.2727H4.36361V17.4545H5.45452V18.5454H6.54543V19.6363H8.72725V20.7272H15.2727V19.6363H17.4545V18.5454H18.5454V17.4545H19.6363V15.2727H20.7272V8.72725H19.6363V6.54543H18.5454V5.45452H17.4545V4.36361H15.2727V3.2727ZM9.81815 6.54543H14.1818V7.63634H15.2727V9.81815H13.0909V8.72725H10.9091V15.2727H13.0909V14.1818H15.2727V16.3636H14.1818V17.4545H9.81815V16.3636H8.72725V7.63634H9.81815V6.54543Z" fill="black"/>
</svg>
